#!OML:ASF H:\IndianDance\Patient Classification 1\Patient 1\Session 1\dancer.ASF
:FULLY-SPECIFIED
:DEGREES
1206
root 7.16964 15.8223 1.49674 112.199 -88.2308 -106.938
lowerback -4.53127 2.4896 0.203885
upperback -1.02582 3.29817 -0.242521
thorax 1.50877 1.64196 -0.172784
lowerneck -17.0314 2.29185 4.1342
upperneck 26.1974 2.38733 -2.44043
head 11.4317 1.04838 -1.27369
rclavicle -2.23136e-014 5.76476e-015
rhumerus -11.6145 -10.3126 -64.3825
rradius 62.0831
rwrist -26.8935
rhand -18.2926 18.5323
rfingers 7.12502
rthumb 7.9879 -11.2968
lclavicle -2.23136e-014 5.76476e-015
lhumerus -1.84614 -14.8372 51.3047
lradius 63.6276
lwrist 6.99914
lhand -5.9201 7.7705
lfingers 7.12502
lthumb 19.9092 36.7707
rfemur -12.9636 10.5263 12.8807
rtibia 21.81
rfoot -5.79579 -21.6759
rtoes -6.47902
lfemur -8.42683 -2.18649 -12.3476
ltibia 16.6189
lfoot -7.23066 8.4333
ltoes -8.96174
1207
root 7.17619 15.8213 1.50017 114.116 -88.2337 -108.912
lowerback -4.69905 2.467 0.215281
upperback -0.985896 3.26743 -0.253028
thorax 1.64448 1.62655 -0.182566
lowerneck -17.0195 2.35036 4.19291
upperneck 26.542 2.42226 -2.37039
head 11.5631 1.07401 -1.25639
rclavicle -2.60905e-016 2.78299e-015
rhumerus -9.99556 -7.69529 -63.9336
rradius 59.5475
rwrist -27.1274
rhand -18.5954 18.2791
rfingers 7.12502
rthumb 7.69568 -11.5608
lclavicle -2.60905e-016 2.78299e-015
lhumerus -0.174323 -16.8512 49.8418
lradius 61.5645
lwrist 7.06606
lhand -6.356 7.74699
lfingers 7.12502
lthumb 19.4901 36.7901
rfemur -12.9698 10.5192 12.8478
rtibia 21.8602
rfoot -5.7949 -21.6248
rtoes -6.48565
lfemur -8.39672 -2.19662 -12.3911
ltibia 16.6589
lfoot -7.22794 8.4895
ltoes -8.92133
1208
root 7.18236 15.8205 1.50385 116.107 -88.2239 -110.937
lowerback -4.88145 2.44518 0.244778
upperback -0.96359 3.23657 -0.269201
thorax 1.77159 1.61106 -0.208241
lowerneck -16.9884 2.40661 4.24901
upperneck 26.8787 2.4502 -2.2861
head 11.688 1.09813 -1.23432
rclavicle -4.47266e-016 2.18663e-015
rhumerus -8.44167 -4.87741 -63.3499
rradius 57.0375
rwrist -27.4784
rhand -18.8304 17.9631
rfingers 7.12502
rthumb 7.46883 -11.885
lclavicle -4.47266e-016 2.18663e-015
lhumerus 1.48825 -18.9605 48.2397
lradius 59.6312
lwrist 7.25067
lhand -6.84164 7.8083
lfingers 7.12502
lthumb 19.0231 36.898
rfemur -12.9979 10.5316 12.819
rtibia 21.9032
rfoot -5.78949 -21.5886
rtoes -6.48923
lfemur -8.396 -2.20295 -12.4235
ltibia 16.7105
lfoot -7.23308 8.55054
ltoes -8.87283
1209
root 7.18814 15.8197 1.5078 118.254 -88.2047 -113.096
lowerback -5.07829 2.42899 0.291033
upperback -0.953268 3.21214 -0.295241
thorax 1.89595 1.59881 -0.252793
lowerneck -16.9543 2.4564 4.29777
upperneck 27.2109 2.46412 -2.18096
head 11.8105 1.11799 -1.20518
rclavicle -5.72748e-015 -3.57812e-015
rhumerus -6.96488 -1.84731 -62.6235
rradius 54.5995
rwrist -27.9442
rhand -19.0335 17.5792
rfingers 7.12502
rthumb 7.27282 -12.2758
lclavicle -5.72748e-015 -3.57812e-015
lhumerus 3.16465 -21.2053 46.4646
lradius 57.8556
lwrist 7.58019
lhand -7.31923 7.95982
lfingers 7.12502
lthumb 18.5638 37.094
rfemur -13.0462 10.5603 12.7892
rtibia 21.9402
rfoot -5.77919 -21.5611
rtoes -6.49847
lfemur -8.41975 -2.20534 -12.4501
ltibia 16.7712
lfoot -7.24617 8.61661
ltoes -8.81271
1210
root 7.19346 15.819 1.51206 120.508 -88.1779 -115.347
lowerback -5.28583 2.41923 0.355055
upperback -0.950573 3.1952 -0.332952
thorax 2.0201 1.59042 -0.318579
lowerneck -16.9132 2.4976 4.33709
upperneck 27.5311 2.4611 -2.05285
head 11.9266 1.13246 -1.16813
rclavicle 8.07563e-017 -7.95139e-016
rhumerus -5.57025 1.42826 -61.7458
rradius 52.2778
rwrist -28.5398
rhand -19.2329 17.1279
rfingers 7.12502
rthumb 7.08035 -12.7337
lclavicle 8.07563e-017 -7.95139e-016
lhumerus 4.8678 -23.5994 44.4818
lradius 56.2792
lwrist 8.10038
lhand -7.64849 8.26738
lfingers 7.12502
lthumb 18.247 37.4315
rfemur -13.1085 10.5972 12.7575
rtibia 21.9727
rfoot -5.76632 -21.5356
rtoes -6.52214
lfemur -8.45982 -2.1989 -12.4735
ltibia 16.8375
lfoot -7.26649 8.68
ltoes -8.74504
1211
root 7.19836 15.8184 1.51646 122.968 -88.1422 -117.791
lowerback -5.50181 2.41768 0.432891
upperback -0.950891 3.18831 -0.381713
thorax 2.1473 1.58721 -0.402502
lowerneck -16.8719 2.52769 4.36352
upperneck 27.8413 2.43923 -1.90527
head 12.0383 1.13988 -1.12413
rclavicle 2.46493e-014 -5.1684e-015
rhumerus -4.2515 4.96718 -60.7104
rradius 50.1156
rwrist -29.2741
rhand -19.4487 16.6153
rfingers 7.12502
rthumb 6.87198 -13.2532
lclavicle 2.46493e-014 -5.1684e-015
lhumerus 6.61438 -26.1462 42.256
lradius 54.9293
lwrist 8.81827
lhand -7.79233 8.69471
lfingers 7.12502
lthumb 18.1086 37.8717
rfemur -13.1831 10.6442 12.7234
rtibia 22.0018
rfoot -5.7522 -21.5089
rtoes -6.55517
lfemur -8.51054 -2.18233 -12.4948
ltibia 16.9058
lfoot -7.2903 8.7428
ltoes -8.68435
1212
root 7.20292 15.8178 1.52088 125.529 -88.1018 -120.33
lowerback -5.72189 2.42305 0.519377
upperback -0.950387 3.19004 -0.440952
thorax 2.27879 1.58849 -0.501233
lowerneck -16.8452 2.55121 4.38853
upperneck 28.1471 2.40427 -1.74903
head 12.1515 1.14268 -1.0782
rclavicle 2.01642e-014 5.56597e-015
rhumerus -3.002 8.79253 -59.4998
rradius 48.1616
rwrist -30.1612
rhand -19.6454 16.0068
rfingers 7.12502
rthumb 6.6821 -13.8677
lclavicle 2.01642e-014 5.56597e-015
lhumerus 8.42729 -28.8211 39.761
lradius 53.8291
lwrist 9.73977
lhand -7.70853 9.22597
lfingers 7.12502
lthumb 18.1893 38.3955
rfemur -13.2637 10.6988 12.6846
rtibia 22.0279
rfoot -5.73615 -21.4822
rtoes -6.60382
lfemur -8.56615 -2.15633 -12.5174
ltibia 16.9743
lfoot -7.31731 8.79957
ltoes -8.62975
1213
root 7.20712 15.8172 1.52518 128.096 -88.0552 -122.872
lowerback -5.93811 2.43374 0.612657
upperback -0.947083 3.19838 -0.506618
thorax 2.41188 1.59329 -0.609986
lowerneck -16.8295 2.56722 4.40518
upperneck 28.4499 2.35781 -1.58714
head 12.2659 1.14044 -1.03008
rclavicle -3.18739e-014 -7.15625e-015
rhumerus -1.80749 12.9235 -58.0921
rradius 46.4674
rwrist -31.2203
rhand -19.8051 15.2993
rfingers 7.12502
rthumb 6.52802 -14.5801
lclavicle -3.18739e-014 -7.15625e-015
lhumerus 10.3335 -31.6101 36.9615
lradius 52.984
lwrist 10.8349
lhand -7.4715 9.79388
lfingers 7.12502
lthumb 18.4173 38.942
rfemur -13.3437 10.7619 12.6457
rtibia 22.0515
rfoot -5.72208 -21.4575
rtoes -6.64761
lfemur -8.61971 -2.11836 -12.5387
ltibia 17.0408
lfoot -7.34597 8.84642
ltoes -8.58602
1214
root 7.21101 15.8165 1.52925 130.494 -88.0043 -125.249
lowerback -6.14829 2.44732 0.710322
upperback -0.939052 3.21016 -0.574652
thorax 2.54696 1.60005 -0.723517
lowerneck -16.8121 2.57769 4.42138
upperneck 28.7446 2.30577 -1.43573
head 12.3774 1.13452 -0.986384
rclavicle 9.33667e-015 -1.03368e-014
rhumerus -0.646881 17.3608 -56.4571
rradius 45.0869
rwrist -32.4453
rhand -19.8942 14.4824
rfingers 7.12502
rthumb 6.44195 -15.3996
lclavicle 9.33667e-015 -1.03368e-014
lhumerus 12.3642 -34.477 33.8331
lradius 52.3962
lwrist 12.0664
lhand -7.19259 10.3433
lfingers 7.12502
lthumb 18.6856 39.4658
rfemur -13.4169 10.8294 12.6099
rtibia 22.0727
rfoot -5.70956 -21.4357
rtoes -6.68958
lfemur -8.66737 -2.07128 -12.5571
ltibia 17.1041
lfoot -7.37514 8.88013
ltoes -8.54572
1215
root 7.21456 15.8158 1.53303 132.754 -87.9509 -127.495
lowerback -6.34552 2.46255 0.8073
upperback -0.927701 3.22401 -0.642075
thorax 2.67829 1.60805 -0.836388
lowerneck -16.7967 2.58813 4.44443
upperneck 29.0365 2.25662 -1.30396
head 12.4895 1.12823 -0.950609
rclavicle 2.29099e-014 1.19271e-015
rhumerus 0.503489 22.0744 -54.5657
rradius 44.068
rwrist -33.7882
rhand -19.9049 13.5808
rfingers 7.12502
rthumb 6.43158 -16.3015
lclavicle 2.29099e-014 1.19271e-015
lhumerus 14.5633 -37.386 30.3459
lradius 52.05
lwrist 13.3795
lhand -6.91302 10.8819
lfingers 7.12502
lthumb 18.9545 39.9784
rfemur -13.4793 10.8987 12.5764
rtibia 22.092
rfoot -5.69901 -21.4149
rtoes -6.73061
lfemur -8.70405 -2.01758 -12.5749
ltibia 17.1635
lfoot -7.40532 8.90402
ltoes -8.51027
